<svg xmlns="http://www.w3.org/2000/svg" width="760" height="380" viewBox="0 0 760 380" font-family="sans-serif">
<rect width="760" height="380" fill="#ffffff"/>
<text x="74" y="26" font-size="16" fill="#111">v0.1.2 학습 손실 곡선</text>
<line x1="74" y1="326.0" x2="734" y2="326.0" stroke="#e5e5e5" stroke-width="1"/>
<text x="64" y="330.0" font-size="11" fill="#666" text-anchor="end">1.63</text>
<line x1="74" y1="256.0" x2="734" y2="256.0" stroke="#e5e5e5" stroke-width="1"/>
<text x="64" y="260.0" font-size="11" fill="#666" text-anchor="end">2.88</text>
<line x1="74" y1="186.0" x2="734" y2="186.0" stroke="#e5e5e5" stroke-width="1"/>
<text x="64" y="190.0" font-size="11" fill="#666" text-anchor="end">4.13</text>
<line x1="74" y1="116.0" x2="734" y2="116.0" stroke="#e5e5e5" stroke-width="1"/>
<text x="64" y="120.0" font-size="11" fill="#666" text-anchor="end">5.39</text>
<line x1="74" y1="46.0" x2="734" y2="46.0" stroke="#e5e5e5" stroke-width="1"/>
<text x="64" y="50.0" font-size="11" fill="#666" text-anchor="end">6.64</text>
<text x="74.0" y="346" font-size="11" fill="#666" text-anchor="middle">1</text>
<text x="237.7" y="346" font-size="11" fill="#666" text-anchor="middle">33</text>
<text x="401.4" y="346" font-size="11" fill="#666" text-anchor="middle">65</text>
<text x="570.3" y="346" font-size="11" fill="#666" text-anchor="middle">98</text>
<text x="734.0" y="346" font-size="11" fill="#666" text-anchor="middle">130</text>
<line x1="74" y1="46" x2="74" y2="326" stroke="#999"/>
<line x1="74" y1="326" x2="734" y2="326" stroke="#999"/>
<text x="404.0" y="366" font-size="12" fill="#444" text-anchor="middle">epoch</text>
<text x="18" y="186.0" font-size="12" fill="#444" text-anchor="middle" transform="rotate(-90 18 186.0)">loss</text>
<polyline points="74.0,46.0 79.1,51.5 84.2,60.0 89.3,73.6 94.5,92.4 99.6,114.1 104.7,137.8 109.8,159.9 114.9,168.0 120.0,175.8 125.2,180.1 130.3,187.8 135.4,186.4 140.5,192.9 145.6,193.9 150.7,205.1 155.9,205.5 161.0,207.8 166.1,209.3 171.2,214.7 176.3,213.4 181.4,218.8 186.6,225.0 191.7,223.8 196.8,227.8 201.9,227.0 207.0,228.2 212.1,232.6 217.3,230.3 222.4,237.1 227.5,239.8 232.6,239.9 237.7,244.1 242.8,242.1 248.0,244.8 253.1,245.3 258.2,253.5 263.3,247.9 268.4,254.2 273.5,253.9 278.7,260.1 283.8,260.6 288.9,259.3 294.0,263.8 299.1,265.0 304.2,268.3 309.3,267.9 314.5,269.7 319.6,272.2 324.7,276.8 329.8,272.0 334.9,274.7 340.0,278.7 345.2,280.8 350.3,277.9 355.4,283.8 360.5,286.1 365.6,288.5 370.7,289.3 375.9,288.2 381.0,290.4 386.1,292.8 391.2,294.8 396.3,294.5 401.4,297.4 406.6,294.5 411.7,295.7 416.8,298.3 421.9,296.7 427.0,302.4 432.1,302.8 437.3,304.7 442.4,304.5 447.5,308.0 452.6,304.3 457.7,307.8 462.8,309.5 468.0,307.1 473.1,313.1 478.2,313.2 483.3,309.9 488.4,315.3 493.5,314.6 498.7,315.9 503.8,316.3 508.9,311.3 514.0,313.6 519.1,316.0 524.2,316.9 529.3,317.8 534.5,319.7 539.6,317.2 544.7,318.0 549.8,316.3 554.9,321.3 560.0,320.8 565.2,319.2 570.3,319.6 575.4,320.5 580.5,320.6 585.6,315.5 590.7,322.1 595.9,318.6 601.0,318.9 606.1,324.0 611.2,320.7 616.3,322.8 621.4,321.8 626.6,321.1 631.7,319.7 636.8,321.7 641.9,324.1 647.0,321.8 652.1,323.2 657.3,324.7 662.4,324.7 667.5,322.5 672.6,321.5 677.7,322.3 682.8,325.1 688.0,326.0 693.1,324.0 698.2,324.1 703.3,325.7 708.4,324.6 713.5,324.3 718.7,322.3 723.8,324.9 728.9,324.5 734.0,320.5" fill="none" stroke="#2b6cb0" stroke-width="1.8"/>
<circle cx="688.0" cy="326.0" r="3.5" fill="#c53030"/>
<text x="688.0" y="316.0" font-size="11" fill="#c53030" text-anchor="end">최저 1.6293 (epoch 121)</text>
<text x="734" y="26" font-size="11" fill="#666" text-anchor="end">130 epochs · 시작 6.6392 → 마지막 1.7276</text>
</svg>